<?xml version="1.0" encoding="UTF-8"?>
<svg xmlns="http://www.w3.org/2000/svg" viewBox="0 0 512 512" role="img" aria-labelledby="title">
  <title>PMS Drive</title>
  <defs>
    <linearGradient id="bg" x1="0" x2="0" y1="0" y2="1">
      <stop offset="0%" stop-color="#eef6fc"/>
      <stop offset="100%" stop-color="#ffffff"/>
    </linearGradient>
  </defs>
  <rect width="512" height="512" rx="104" fill="url(#bg)"/>
  <rect x="120" y="142" width="126" height="66" rx="28" fill="#f6c45b"/>
  <rect x="102" y="178" width="320" height="206" rx="44" fill="#f2ae2e"/>
  <rect x="102" y="196" width="320" height="188" rx="44" fill="#f7c256"/>
  <rect x="170" y="122" width="152" height="190" rx="22" fill="#d6e2ef" opacity=".45"/>
  <rect x="162" y="114" width="152" height="190" rx="22" fill="#ffffff"/>
  <path d="M266 114h48v44h-48z" fill="#e4edf5"/>
  <path d="M266 114l48 44h-48z" fill="#cfdbe7"/>
  <rect x="188" y="150" width="86" height="16" rx="8" fill="#0e5f95"/>
  <rect x="188" y="190" width="102" height="12" rx="6" fill="#9fb7cf"/>
  <rect x="188" y="222" width="94" height="12" rx="6" fill="#9fb7cf"/>
  <rect x="188" y="254" width="64" height="12" rx="6" fill="#9fb7cf"/>
  <circle cx="338" cy="304" r="78" fill="#072949"/>
  <circle cx="338" cy="304" r="66" fill="#0b3960"/>
  <path d="M301 266h18c15 0 25 9 25 22s-10 22-25 22h-7v28h-11v-72Zm11 35h7c8 0 13-5 13-13s-5-13-13-13h-7v26Zm45-35h11l16 24 16-24h11v72h-11v-54l-16 23-16-23v54h-11v-72Z" fill="#ffffff"/>
  <rect x="296" y="342" width="84" height="10" rx="5" fill="#f2ae2e"/>
</svg>